<svg width="50" height="50" viewBox="0 0 50 50" fill="none" xmlns="http://www.w3.org/2000/svg">
<path d="M4.17084 25.0043C4.17326 35.253 11.6258 43.9794 21.7479 45.5856V31.0251H16.4625V25.0043H21.7542V20.421C21.5176 18.2492 22.2594 16.0847 23.7784 14.5146C25.2974 12.9444 27.4362 12.1314 29.6146 12.296C31.1782 12.3212 32.7379 12.4605 34.2813 12.7126V17.8356H31.6479C30.7413 17.7168 29.8299 18.0162 29.1704 18.6494C28.5108 19.2827 28.1745 20.1811 28.2563 21.0918V25.0043H34.0292L33.1063 31.0272H28.2563V45.5856C39.2031 43.8555 46.8794 33.858 45.724 22.8357C44.5686 11.8134 34.986 3.62499 23.9184 4.20259C12.8508 4.78019 4.1726 13.9216 4.17084 25.0043Z" fill="white"/>
</svg>
