<svg width="50" height="50" viewBox="0 0 50 50" fill="none" xmlns="http://www.w3.org/2000/svg">
<path d="M25.0042 43.8357C19.8792 43.8357 19.275 43.8087 17.275 43.7212C15.7154 43.6699 14.1759 43.3528 12.7229 42.7837C10.209 41.8053 8.22114 39.8167 7.24376 37.3024C6.69649 35.8442 6.4013 34.3034 6.37085 32.7462C6.25418 30.7503 6.25418 30.0962 6.25418 25.0107C6.25418 19.8712 6.28126 19.2712 6.37085 17.2816C6.40197 15.7264 6.69714 14.1878 7.24376 12.7316C8.22008 10.2139 10.2112 8.2236 12.7292 7.24824C14.1847 6.69866 15.7237 6.40271 17.2792 6.37324C19.2688 6.26074 19.9229 6.26074 25.0042 6.26074C30.1708 6.26074 30.7646 6.28783 32.7333 6.37324C34.2929 6.40296 35.8359 6.69889 37.2959 7.24824C39.8131 8.22471 41.8038 10.2146 42.7813 12.7316C43.3378 14.2091 43.6345 15.7717 43.6583 17.3503C43.775 19.3462 43.775 19.9982 43.775 25.0816C43.775 30.1649 43.7458 30.8316 43.6583 32.8045C43.6273 34.3632 43.3314 35.9054 42.7833 37.3649C41.8035 39.881 39.8126 41.8703 37.2959 42.8482C35.838 43.3945 34.2982 43.6896 32.7417 43.7212C30.7521 43.8357 30.1 43.8357 25.0042 43.8357ZM24.9334 9.55866C19.8375 9.55866 19.3083 9.58366 17.3188 9.67324C16.1312 9.68897 14.9552 9.90812 13.8417 10.3212C12.1974 10.9503 10.8963 12.2461 10.2604 13.8878C9.84421 15.0134 9.62503 16.2024 9.61251 17.4024C9.5021 19.4212 9.5021 19.9503 9.5021 25.0107C9.5021 30.0107 9.52085 30.617 9.61251 32.6232C9.63116 33.8112 9.85021 34.9874 10.2604 36.1024C10.8973 37.743 12.1981 39.0378 13.8417 39.667C14.9544 40.0828 16.131 40.302 17.3188 40.3149C19.3354 40.4316 19.8667 40.4316 24.9334 40.4316C30.0438 40.4316 30.5729 40.4066 32.5458 40.3149C33.7342 40.3004 34.9111 40.0813 36.025 39.667C37.6593 39.0324 38.9519 37.7405 39.5875 36.1066C40.0029 34.98 40.2221 33.7905 40.2354 32.5899H40.2583C40.3479 30.5982 40.3479 30.067 40.3479 24.9774C40.3479 19.8878 40.325 19.3524 40.2354 17.3628C40.2168 16.1763 39.9977 15.0014 39.5875 13.8878C38.9534 12.2515 37.6606 10.9572 36.025 10.3212C34.9114 9.90604 33.7343 9.68683 32.5458 9.67324C30.5313 9.55866 30.0042 9.55866 24.9334 9.55866ZM25.0042 34.6337C21.1083 34.6362 17.5946 32.2914 16.1018 28.6929C14.609 25.0944 15.4311 20.951 18.1847 18.195C20.9383 15.4391 25.081 14.6134 28.6808 16.1031C32.2805 17.5928 34.6283 21.1045 34.6292 25.0003C34.6235 30.315 30.3189 34.6233 25.0042 34.6337ZM25.0042 18.7462C21.5524 18.7462 18.7542 21.5444 18.7542 24.9962C18.7542 28.4479 21.5524 31.2462 25.0042 31.2462C28.456 31.2462 31.2542 28.4479 31.2542 24.9962C31.2462 21.5477 28.4526 18.7542 25.0042 18.7462ZM35.0042 17.2608C33.7655 17.2561 32.7644 16.2495 32.7667 15.0108C32.769 13.7721 33.7738 12.7691 35.0125 12.7691C36.2512 12.7691 37.256 13.772 37.2584 15.0107C37.2589 15.6084 37.0215 16.1816 36.5985 16.6038C36.1755 17.026 35.6018 17.2624 35.0042 17.2608Z" fill="white"/>
</svg>
