<svg width="50" height="50" viewBox="0 0 50 50" fill="none" xmlns="http://www.w3.org/2000/svg">
<path d="M41.6562 13.9332C43.5238 12.8167 44.9212 11.0587 45.5875 8.9874C43.8326 10.0287 41.9125 10.7621 39.9104 11.1561C37.1345 8.21974 32.7365 7.50516 29.1737 9.41168C25.611 11.3182 23.7656 15.3738 24.6687 19.3124C17.4804 18.9515 10.7832 15.556 6.24372 9.97073C3.87464 14.057 5.08529 19.2807 9.01039 21.9082C7.59103 21.8626 6.20315 21.4783 4.96247 20.7874C4.96247 20.8249 4.96247 20.8624 4.96247 20.8999C4.96329 25.1565 7.96325 28.823 12.1354 29.6666C10.8189 30.0247 9.4379 30.0775 8.09789 29.8207C9.27122 33.4609 12.6261 35.9547 16.45 36.0291C13.283 38.5147 9.3718 39.8627 5.3458 39.8561C4.6322 39.8572 3.91916 39.8161 3.21039 39.7332C7.2987 42.3604 12.057 43.7548 16.9166 43.7499C23.6776 43.7963 30.175 41.1309 34.9557 36.3499C39.7363 31.5689 42.4011 25.0712 42.3541 18.3103C42.3541 17.9228 42.3451 17.5374 42.3271 17.1541C44.078 15.8886 45.5892 14.321 46.7896 12.5249C45.1583 13.2479 43.428 13.7227 41.6562 13.9332Z" fill="white"/>
</svg>
