<svg width="50" height="50" viewBox="0 0 50 50" fill="none" xmlns="http://www.w3.org/2000/svg">
<path d="M25.0125 39.6087H24.9709C24.8417 39.6087 11.9188 39.5837 8.65836 38.6982C6.86549 38.2153 5.46534 36.8143 4.98336 35.0212C4.39707 31.7136 4.11395 28.3594 4.13753 25.0003C4.12238 21.6358 4.41316 18.2768 5.00628 14.9649C5.5015 13.1701 6.89551 11.7627 8.68545 11.2503C11.8563 10.417 24.4229 10.417 24.9563 10.417H25C25.1313 10.417 38.0875 10.442 41.3146 11.3274C43.1037 11.8128 44.501 13.2109 44.9854 15.0003C45.5904 18.3202 45.8744 21.6906 45.8334 25.0649C45.848 28.4254 45.5565 31.7802 44.9625 35.0878C44.4743 36.8787 43.0733 38.2766 41.2813 38.7607C38.1146 39.6003 25.5459 39.6087 25.0125 39.6087ZM20.8459 18.7607L20.8354 31.2607L31.6938 25.0107L20.8459 18.7607Z" fill="white"/>
</svg>
