<svg width="167" height="53" viewBox="0 0 167 53" fill="none" xmlns="http://www.w3.org/2000/svg">
<path d="M38.6419 17.2591V43.5004H31.7891V30.3798C31.7891 29.3651 31.5973 28.4204 31.2136 27.5457C30.83 26.671 30.2895 25.9012 29.592 25.2365C28.9294 24.5717 28.1447 24.0643 27.2379 23.7145C26.3661 23.3296 25.4419 23.1371 24.4654 23.1371C23.4541 23.1371 22.5124 23.3296 21.6406 23.7145C20.7687 24.0993 19.984 24.6242 19.2865 25.2889C18.6239 25.9187 18.1008 26.6885 17.7172 27.5982C17.3336 28.4729 17.1418 29.4176 17.1418 30.4322C17.1418 31.4119 17.3336 32.3391 17.7172 33.2138C18.1008 34.0885 18.6239 34.8583 19.2865 35.5231C19.984 36.1878 20.7687 36.7127 21.6406 37.0975C22.5124 37.4824 23.4541 37.6749 24.4654 37.6749C25.5465 37.6749 26.4707 37.4824 27.2379 37.0975H27.2903V37.2025L29.9058 41.8735L29.8535 41.9259C28.1447 43.2555 26.0348 43.9203 23.5238 43.9203C21.6754 43.9203 19.9317 43.5704 18.2926 42.8706C16.6535 42.1709 15.2237 41.2087 14.003 39.9841C12.7824 38.7595 11.8059 37.325 11.0736 35.6805C10.3761 34.036 10.0273 32.2866 10.0273 30.4322C10.0273 28.5429 10.3761 26.7759 11.0736 25.1315C11.8059 23.487 12.7824 22.0525 14.003 20.8279C15.2237 19.6033 16.6535 18.6411 18.2926 17.9414C19.9317 17.2066 21.6754 16.8392 23.5238 16.8392C25.3373 16.8392 26.9241 17.1891 28.2842 17.8889C29.6443 18.5537 30.8126 19.5333 31.7891 20.8279V17.2591H38.6419ZM42.3258 43.5004V17.2591H49.2833V43.5004H42.3258ZM42.3258 7.5L49.2833 12V14H42.3258V7.5ZM73.7841 18.3087L73.1564 19.3584L70.4885 24.1343L70.4362 24.0818C69.2853 23.4171 68.0473 23.0847 66.722 23.0847C65.8153 23.0847 64.9609 23.2421 64.1588 23.557C63.3567 23.8369 62.6417 24.2568 62.014 24.8166C61.3862 25.3414 60.8457 25.9712 60.3923 26.706C59.9738 27.4407 59.6948 28.228 59.5553 29.0677V43.5004H52.4409V17.2591H59.5553C51.1233 17.6789 52.4409 17.2591 55.9981 17.2591C58.0906 17.2591 71.8312 16.5334 73.7841 17.513V18.3087Z" fill="white"/>
<path d="M91.0074 16.9442C92.8558 16.9442 94.5995 17.2941 96.2386 17.9938C97.8777 18.6936 99.3076 19.6558 100.528 20.8804C101.749 22.105 102.708 23.5395 103.405 25.184C104.138 26.8284 104.504 28.5779 104.504 30.4322C104.504 32.2866 104.138 34.036 103.405 35.6805C102.708 37.325 101.749 38.7595 100.528 39.9841C99.3076 41.2087 97.8777 42.1709 96.2386 42.8706C94.5995 43.5704 92.8558 43.9203 91.0074 43.9203C87.4153 43.9203 84.6777 42.5907 82.7945 39.9316V43.5004H75.8893V6.76254H82.8468V30.4322C82.8468 31.4469 83.0386 32.3916 83.4222 33.2663C83.8058 34.141 84.3115 34.9108 84.9392 35.5755C85.6019 36.2053 86.3691 36.7127 87.241 37.0975C88.1477 37.4824 89.1067 37.6748 90.1181 37.6748C91.0946 37.6748 92.0188 37.4824 92.8906 37.0975C93.7974 36.7127 94.5646 36.2053 95.1924 35.5755C95.855 34.9108 96.3781 34.141 96.7617 33.2663C97.1453 32.3916 97.3371 31.4469 97.3371 30.4322C97.3371 29.4176 97.1453 28.4729 96.7617 27.5982C96.3781 26.7235 95.855 25.9537 95.1924 25.2889C94.5646 24.6242 93.7974 24.1168 92.8906 23.7669C92.0188 23.3821 91.0946 23.1896 90.1181 23.1896C89.1765 23.1896 88.2349 23.3821 87.2933 23.7669L87.241 23.8194L87.1886 23.7145L84.6254 18.991L84.6777 18.9385C86.3865 17.609 88.4964 16.9442 91.0074 16.9442ZM120.18 16.8392C122.029 16.8392 123.772 17.2066 125.412 17.9414C127.051 18.6411 128.481 19.6033 129.701 20.8279C130.922 22.0525 131.881 23.487 132.578 25.1315C133.311 26.7759 133.677 28.5429 133.677 30.4322C133.677 31.4469 133.572 32.4266 133.363 33.3713L133.311 33.4762H120.023L116.676 28.123H126.615C126.127 26.6535 125.307 25.4464 124.156 24.5017C123.04 23.557 121.715 23.0847 120.18 23.0847C119.239 23.0847 118.35 23.2771 117.513 23.662C116.676 24.0468 115.943 24.5717 115.316 25.2365C114.723 25.8662 114.252 26.636 113.903 27.5457C113.555 28.4204 113.38 29.3826 113.38 30.4322C113.38 31.237 113.537 32.0767 113.851 32.9514C114.165 33.7911 114.618 34.5609 115.211 35.2606C115.804 35.9604 116.519 36.5552 117.356 37.0451C118.193 37.4999 119.134 37.7273 120.18 37.7273C121.122 37.7273 121.976 37.6049 122.744 37.36C123.546 37.08 124.296 36.4852 124.993 35.5755L125.045 35.5231L125.15 35.5755L131.218 38.2522L131.114 38.3571C129.858 40.1066 128.254 41.4711 126.301 42.4508C124.383 43.4305 122.343 43.9203 120.18 43.9203C118.297 43.9203 116.519 43.5704 114.845 42.8706C113.206 42.1709 111.776 41.2087 110.555 39.9841C109.335 38.7595 108.358 37.325 107.626 35.6805C106.928 34.036 106.58 32.2866 106.58 30.4322C106.58 28.5429 106.928 26.7759 107.626 25.1315C108.358 23.487 109.335 22.0525 110.555 20.8279C111.776 19.6033 113.206 18.6411 114.845 17.9414C116.519 17.2066 118.297 16.8392 120.18 16.8392ZM131.241 43.5004L138.251 33.9486L144.633 36.8876L139.768 43.5004H131.241ZM149.341 30.4847L158.967 43.5004H150.388V43.448L140.867 30.5372L131.294 17.2591H139.768L145.052 26.1811L150.388 17.2591H158.967L158.862 17.3116L149.341 30.4847Z" fill="#00FFC2"/>
<path d="M39 13.9705V8H23.1083C18.1748 8 14.9744 9.35303 14.5001 9.5C8.57033 11.3371 4.58126 17.4382 3 20.5C0.153728 27.2972 1.08969 33 1.08969 33H7.21665C7.21665 33 7.00006 29.5 7.50006 28C9.77708 15.6915 18.7599 13.894 23.1083 13.9705H39Z" fill="url(#paint0_linear_328_109)"/>
<g clip-path="url(#clip0_328_109)">
<path d="M69.2303 9.56964C70.4922 9.56964 73.0198 10.5924 73.0198 11.8267C73.0198 13.0964 70.4922 14.0838 69.2303 14.0838C69.3539 13.8938 73.3427 8.20184 69.2303 14.0838L51.94 14.006C52.126 14.006 52.1401 14.006 51.94 14.006C51.9384 14.006 52.0392 14.006 51.9384 14.006C51.9252 14.0519 52.4427 12.1966 51.9384 14.006L52.6148 11.8267L51.4539 7.94382C51.4407 7.89798 51.434 7.85213 51.434 7.80628C51.434 7.53473 51.6659 7.31254 51.9517 7.31254H53.5004C53.6863 7.31254 53.8612 7.39718 53.9727 7.53825L55.5667 9.56964H59.3636L57.5518 3.51779C57.4448 3.15701 57.7289 2.79834 58.1201 2.79834H60.1938C60.6181 2.79834 61.0092 3.01534 61.2196 3.36685L64.9279 9.56964H69.2303Z" fill="white"/>
</g>
<defs>
<linearGradient id="paint0_linear_328_109" x1="1.04961" y1="30.5043" x2="194.596" y2="30.5043" gradientUnits="userSpaceOnUse">
<stop offset="0.302083" stop-color="white"/>
<stop offset="0.395833" stop-color="#01FFC2"/>
</linearGradient>
<clipPath id="clip0_328_109">
<rect width="22.1333" height="12.4435" fill="white" transform="translate(51.2611 2.3826)"/>
</clipPath>
</defs>
</svg>
