<svg width="28" height="32" viewBox="0 0 28 32" fill="none" xmlns="http://www.w3.org/2000/svg">
<path d="M18.2526 15.3252C18.6163 14.9095 18.5741 14.2778 18.1585 13.9141C17.7429 13.5504 17.1111 13.5925 16.7474 14.0082L18.2526 15.3252ZM14 18.6667L13.2474 19.3252C13.4373 19.5422 13.7116 19.6667 14 19.6667C14.2884 19.6667 14.5627 19.5422 14.7526 19.3252L14 18.6667ZM11.2526 14.0082C10.8889 13.5925 10.2571 13.5504 9.8415 13.9141C9.42586 14.2778 9.38374 14.9095 9.74742 15.3252L11.2526 14.0082ZM16.7474 14.0082L13.2474 18.0082L14.7526 19.3252L18.2526 15.3252L16.7474 14.0082ZM14.7526 18.0082L11.2526 14.0082L9.74742 15.3252L13.2474 19.3252L14.7526 18.0082Z" fill="white"/>
</svg>
