<svg width="132" height="69" viewBox="0 0 132 69" fill="none" xmlns="http://www.w3.org/2000/svg">
<path d="M106.048 41.6844C113.568 41.6844 126.057 48.0974 128.737 56.1136C128.737 56.1136 136.15 68.9948 128.63 68.9948L3.01511 68.9948C4.1233 68.9948 4.20752 68.9948 3.01511 68.9948C3.01511 68.9948 3.60644 68.9948 3.00537 68.9948C2.92665 69.2771 6.01074 57.8558 3.00537 68.9948L7.03616 55.5792L0.118691 31.6758C0.0399742 31.3935 0 31.1113 0 30.8291C0 29.1574 1.38173 27.7896 3.08492 27.7896L12.3133 27.7896C13.4215 27.7896 14.4637 28.3106 15.1277 29.1791L24.6266 41.6844L47.2522 41.6844L36.4561 4.42896C35.8184 2.20797 37.5115 0 39.8422 0L52.1995 0C54.7281 0 57.0589 1.33585 58.3122 3.49975L80.4101 41.6844L106.048 41.6844Z" fill="#01FFC2"/>
</svg>
