<svg width="28" height="28" viewBox="0 0 28 28" fill="none" xmlns="http://www.w3.org/2000/svg">
<path d="M4.66699 9.33334H23.3337" stroke="white" stroke-width="2" stroke-linecap="round" stroke-linejoin="round"/>
<path d="M22.167 4.66666H5.83366C5.18933 4.66666 4.66699 5.18899 4.66699 5.83332V22.1667C4.66699 22.811 5.18933 23.3333 5.83366 23.3333H22.167C22.8113 23.3333 23.3337 22.811 23.3337 22.1667V5.83332C23.3337 5.18899 22.8113 4.66666 22.167 4.66666Z" stroke="white" stroke-width="2" stroke-linecap="round" stroke-linejoin="round"/>
<path d="M18.2071 14.7071C18.5976 14.3166 18.5976 13.6834 18.2071 13.2929C17.8166 12.9024 17.1834 12.9024 16.7929 13.2929L18.2071 14.7071ZM12.8333 18.6667L12.1262 19.3738C12.3138 19.5613 12.5681 19.6667 12.8333 19.6667C13.0985 19.6667 13.3529 19.5613 13.5404 19.3738L12.8333 18.6667ZM11.2071 15.6262C10.8166 15.2357 10.1834 15.2357 9.79289 15.6262C9.40237 16.0168 9.40237 16.6499 9.79289 17.0404L11.2071 15.6262ZM16.7929 13.2929L12.1262 17.9596L13.5404 19.3738L18.2071 14.7071L16.7929 13.2929ZM13.5404 17.9596L11.2071 15.6262L9.79289 17.0404L12.1262 19.3738L13.5404 17.9596Z" fill="white"/>
<path d="M18.667 2.33334V4.66668" stroke="white" stroke-width="2" stroke-linecap="round" stroke-linejoin="round"/>
<path d="M9.33301 2.33334V4.66668" stroke="white" stroke-width="2" stroke-linecap="round" stroke-linejoin="round"/>
</svg>
