<svg width="42" height="42" viewBox="0 0 42 42" fill="none" xmlns="http://www.w3.org/2000/svg">
<path d="M6.75 21C6.75 28.8701 13.1299 35.25 21 35.25V38.25C11.4731 38.25 3.75 30.5269 3.75 21H6.75ZM21 35.25C28.8701 35.25 35.25 28.8701 35.25 21H38.25C38.25 30.5269 30.5269 38.25 21 38.25V35.25ZM35.25 21C35.25 13.1299 28.8701 6.75 21 6.75V3.75C30.5269 3.75 38.25 11.4731 38.25 21H35.25ZM21 6.75C13.1299 6.75 6.75 13.1299 6.75 21H3.75C3.75 11.4731 11.4731 3.75 21 3.75V6.75Z" fill="white"/>
<path d="M20.3107 27.3107C19.7249 27.8964 18.7751 27.8964 18.1893 27.3107C17.6036 26.7249 17.6036 25.7751 18.1893 25.1893L20.3107 27.3107ZM24.5 21L25.5607 19.9393C26.1464 20.5251 26.1464 21.4749 25.5607 22.0607L24.5 21ZM18.1893 16.8107C17.6036 16.2249 17.6036 15.2751 18.1893 14.6893C18.7751 14.1036 19.7249 14.1036 20.3107 14.6893L18.1893 16.8107ZM18.1893 25.1893L23.4393 19.9393L25.5607 22.0607L20.3107 27.3107L18.1893 25.1893ZM23.4393 22.0607L18.1893 16.8107L20.3107 14.6893L25.5607 19.9393L23.4393 22.0607Z" fill="white"/>
</svg>
