<svg width="25" height="25" viewBox="0 0 25 25" fill="none" xmlns="http://www.w3.org/2000/svg">
<path d="M11.7932 14.9179C11.4027 15.3084 11.4027 15.9416 11.7932 16.3321C12.1837 16.7226 12.8169 16.7226 13.2074 16.3321L11.7932 14.9179ZM15.6253 12.5L16.3324 13.2071C16.52 13.0196 16.6253 12.7652 16.6253 12.5C16.6253 12.2348 16.52 11.9804 16.3324 11.7929L15.6253 12.5ZM13.2074 8.66789C12.8169 8.27737 12.1837 8.27737 11.7932 8.66789C11.4027 9.05842 11.4027 9.69158 11.7932 10.0821L13.2074 8.66789ZM4.16699 11.5C3.61471 11.5 3.16699 11.9477 3.16699 12.5C3.16699 13.0523 3.61471 13.5 4.16699 13.5L4.16699 11.5ZM13.2074 16.3321L16.3324 13.2071L14.9182 11.7929L11.7932 14.9179L13.2074 16.3321ZM16.3324 11.7929L13.2074 8.66789L11.7932 10.0821L14.9182 13.2071L16.3324 11.7929ZM4.16699 13.5L15.6253 13.5L15.6253 11.5L4.16699 11.5L4.16699 13.5Z" fill="white"/>
<path d="M4.16699 7.29163V5.20829C4.16699 4.633 4.63336 4.16663 5.20866 4.16663H19.792C20.3673 4.16663 20.8337 4.633 20.8337 5.20829V19.7916C20.8337 20.3669 20.3673 20.8333 19.792 20.8333H5.20866C4.63336 20.8333 4.16699 20.3669 4.16699 19.7916V17.7083" stroke="white" stroke-width="2" stroke-linecap="round" stroke-linejoin="round"/>
</svg>
