<svg width="25" height="25" viewBox="0 0 25 25" fill="none" xmlns="http://www.w3.org/2000/svg">
<path d="M20.4779 10.1054L13.1863 3.72514C12.7935 3.3815 12.2071 3.3815 11.8144 3.72514L4.52272 10.1053C4.29666 10.3031 4.16699 10.5889 4.16699 10.8893V19.7916C4.16699 20.3669 4.63336 20.8333 5.20866 20.8333H9.37532C9.95062 20.8333 10.417 20.3669 10.417 19.7916V15.6249C10.417 15.0496 10.8834 14.5833 11.4587 14.5833H13.542C14.1173 14.5833 14.5837 15.0496 14.5837 15.6249V19.7916C14.5837 20.3669 15.05 20.8333 15.6253 20.8333H19.792C20.3673 20.8333 20.8337 20.3669 20.8337 19.7916V10.8893C20.8337 10.5889 20.704 10.3032 20.4779 10.1054Z" stroke="white" stroke-width="2" stroke-linecap="round" stroke-linejoin="round"/>
</svg>
