<svg width="25" height="25" viewBox="0 0 25 25" fill="none" xmlns="http://www.w3.org/2000/svg">
<path d="M12.5003 11.4583C13.6509 11.4583 14.5837 10.5256 14.5837 9.37496C14.5837 8.22437 13.6509 7.29163 12.5003 7.29163C11.3497 7.29163 10.417 8.22437 10.417 9.37496C10.417 10.5256 11.3497 11.4583 12.5003 11.4583Z" stroke="white" stroke-width="2" stroke-linecap="round" stroke-linejoin="round"/>
<path d="M12.4997 21.875C12.4997 21.875 19.7913 16.8269 19.7913 10.3365C19.7913 8.42392 19.0231 6.58964 17.6557 5.23721C16.2882 3.88478 14.4335 3.125 12.4997 3.125C10.5658 3.125 8.71114 3.88478 7.34369 5.23721C5.97623 6.58964 5.20801 8.42392 5.20801 10.3365C5.20801 16.8269 12.4997 21.875 12.4997 21.875Z" stroke="white" stroke-width="2" stroke-linecap="round" stroke-linejoin="round"/>
</svg>
