<svg width="1920" height="89" viewBox="0 0 1920 89" fill="none" xmlns="http://www.w3.org/2000/svg">
<path d="M0 89L32 84.3C64 79.7 128 70.3 192 67.3C256 64.3 320 67.7 384 67.8C448 68 512 65 576 62.2C640 59.3 704 56.7 768 55.5C832 54.3 896 54.7 960 56.3C1024 58 1088 61 1152 63.8C1216 66.7 1280 69.3 1344 70.7C1408 72 1472 72 1536 73C1600 74 1664 76 1728 77.2C1792 78.3 1856 78.7 1888 78.8L1920 79V0H1888C1856 0 1792 0 1728 0C1664 0 1600 0 1536 0C1472 0 1408 0 1344 0C1280 0 1216 0 1152 0C1088 0 1024 0 960 0C896 0 832 0 768 0C704 0 640 0 576 0C512 0 448 0 384 0C320 0 256 0 192 0C128 0 64 0 32 0H0V89Z" fill="#196E5A"/>
</svg>
