<svg width="25" height="25" viewBox="0 0 25 25" fill="none" xmlns="http://www.w3.org/2000/svg">
<path d="M11.9598 20.7981L11.2527 21.5052L11.2527 21.5052L11.9598 20.7981ZM4.20256 13.0408L3.49546 13.7479L3.49546 13.7479L4.20256 13.0408ZM13.0414 4.20195L13.7485 3.49485L13.7485 3.49485L13.0414 4.20195ZM20.7987 11.9592L21.5058 11.2521L21.5058 11.2521L20.7987 11.9592ZM20.7987 13.4324L20.0916 12.7253L20.0916 12.7253L20.7987 13.4324ZM13.433 20.7981L14.1401 21.5052L14.1401 21.5052L13.433 20.7981ZM3.90174 12.2099L4.89764 12.3004L4.89764 12.3004L3.90174 12.2099ZM4.51555 5.45802L5.51144 5.54856L4.51555 5.45802ZM5.45863 4.51494L5.54917 5.51084L5.54917 5.51084L5.45863 4.51494ZM12.2105 3.90113L12.3011 4.89703L12.3011 4.89703L12.2105 3.90113ZM12.6669 20.091L4.90967 12.3337L3.49546 13.7479L11.2527 21.5052L12.6669 20.091ZM12.3343 4.90906L20.0916 12.6663L21.5058 11.2521L13.7485 3.49485L12.3343 4.90906ZM20.0916 12.7253L12.7259 20.091L14.1401 21.5052L21.5058 14.1395L20.0916 12.7253ZM4.89764 12.3004L5.51144 5.54856L3.51966 5.36749L2.90585 12.1194L4.89764 12.3004ZM5.54917 5.51084L12.3011 4.89703L12.12 2.90524L5.3681 3.51905L5.54917 5.51084ZM5.51144 5.54856C5.51327 5.52853 5.52914 5.51266 5.54917 5.51084L5.3681 3.51905C4.38656 3.60828 3.60889 4.38595 3.51966 5.36749L5.51144 5.54856ZM20.0916 12.6663C20.1078 12.6826 20.1078 12.709 20.0916 12.7253L21.5058 14.1395C22.3031 13.3422 22.3031 12.0494 21.5058 11.2521L20.0916 12.6663ZM13.7485 3.49485C13.32 3.06639 12.7234 2.85038 12.12 2.90524L12.3011 4.89703C12.3134 4.89591 12.3255 4.90031 12.3343 4.90906L13.7485 3.49485ZM4.90967 12.3337C4.90093 12.3249 4.89652 12.3128 4.89764 12.3004L2.90585 12.1194C2.85099 12.7228 3.067 13.3194 3.49546 13.7479L4.90967 12.3337ZM11.2527 21.5052C12.0501 22.3025 13.3428 22.3025 14.1401 21.5052L12.7259 20.091C12.7096 20.1072 12.6832 20.1072 12.6669 20.091L11.2527 21.5052Z" fill="white"/>
<path d="M8.64494 8.64457C9.05174 8.23778 9.71128 8.23778 10.1181 8.64457C10.5249 9.05137 10.5249 9.71092 10.1181 10.1177C9.71128 10.5245 9.05174 10.5245 8.64494 10.1177C8.23814 9.71092 8.23814 9.05137 8.64494 8.64457Z" stroke="white" stroke-width="2" stroke-linecap="round" stroke-linejoin="round"/>
</svg>
