<svg width="43" height="43" viewBox="0 0 43 43" fill="none" xmlns="http://www.w3.org/2000/svg">
<path d="M21.5 0C9.84485 0 0 9.84485 0 21.5C0 33.1552 9.84485 43 21.5 43C33.1552 43 43 33.1552 43 21.5C43 9.84485 33.1552 0 21.5 0ZM21.5 10.75C25.2131 10.75 27.95 13.4848 27.95 17.2C27.95 20.9152 25.2131 23.65 21.5 23.65C17.7891 23.65 15.05 20.9152 15.05 17.2C15.05 13.4848 17.7891 10.75 21.5 10.75ZM10.5221 31.7598C12.4507 28.9218 15.6671 27.0298 19.35 27.0298H23.65C27.3351 27.0298 30.5494 28.9218 32.4779 31.7598C29.7302 34.701 25.8323 36.55 21.5 36.55C17.1677 36.55 13.2698 34.701 10.5221 31.7598Z" fill="#01FFC2"/>
</svg>
